<svg xmlns="http://www.w3.org/2000/svg" viewBox="0 0 900 820" width="900" height="820" font-family="'Segoe UI', system-ui, -apple-system, sans-serif">
  <defs>
    <!-- Backgrounds -->
    <linearGradient id="pageBg" x1="0%" y1="0%" x2="100%" y2="100%">
      <stop offset="0%" style="stop-color:#0d1117"/>
      <stop offset="100%" style="stop-color:#161b22"/>
    </linearGradient>
    <!-- Phase gradients -->
    <linearGradient id="morningGrad" x1="0%" y1="0%" x2="100%" y2="0%">
      <stop offset="0%" style="stop-color:#0ea5e9;stop-opacity:0.15"/>
      <stop offset="100%" style="stop-color:#0ea5e9;stop-opacity:0.03"/>
    </linearGradient>
    <linearGradient id="planGrad" x1="0%" y1="0%" x2="100%" y2="0%">
      <stop offset="0%" style="stop-color:#6366f1;stop-opacity:0.15"/>
      <stop offset="100%" style="stop-color:#6366f1;stop-opacity:0.03"/>
    </linearGradient>
    <linearGradient id="buildGrad" x1="0%" y1="0%" x2="100%" y2="0%">
      <stop offset="0%" style="stop-color:#10b981;stop-opacity:0.15"/>
      <stop offset="100%" style="stop-color:#10b981;stop-opacity:0.03"/>
    </linearGradient>
    <linearGradient id="breakGrad" x1="0%" y1="0%" x2="100%" y2="0%">
      <stop offset="0%" style="stop-color:#ef4444;stop-opacity:0.15"/>
      <stop offset="100%" style="stop-color:#ef4444;stop-opacity:0.03"/>
    </linearGradient>
    <linearGradient id="commitGrad" x1="0%" y1="0%" x2="100%" y2="0%">
      <stop offset="0%" style="stop-color:#f59e0b;stop-opacity:0.15"/>
      <stop offset="100%" style="stop-color:#f59e0b;stop-opacity:0.03"/>
    </linearGradient>
    <linearGradient id="shipGrad" x1="0%" y1="0%" x2="100%" y2="0%">
      <stop offset="0%" style="stop-color:#8b5cf6;stop-opacity:0.15"/>
      <stop offset="100%" style="stop-color:#8b5cf6;stop-opacity:0.03"/>
    </linearGradient>
    <linearGradient id="goldPathGrad" x1="0%" y1="0%" x2="100%" y2="0%">
      <stop offset="0%" style="stop-color:#0ea5e9"/>
      <stop offset="25%" style="stop-color:#6366f1"/>
      <stop offset="50%" style="stop-color:#10b981"/>
      <stop offset="75%" style="stop-color:#6366f1"/>
      <stop offset="100%" style="stop-color:#8b5cf6"/>
    </linearGradient>
    <!-- Card fills -->
    <linearGradient id="cardBlue" x1="0%" y1="0%" x2="0%" y2="100%">
      <stop offset="0%" style="stop-color:#0c2233"/>
      <stop offset="100%" style="stop-color:#071828"/>
    </linearGradient>
    <linearGradient id="cardGreen" x1="0%" y1="0%" x2="0%" y2="100%">
      <stop offset="0%" style="stop-color:#0a2018"/>
      <stop offset="100%" style="stop-color:#061510"/>
    </linearGradient>
    <linearGradient id="cardPurple" x1="0%" y1="0%" x2="0%" y2="100%">
      <stop offset="0%" style="stop-color:#160f2d"/>
      <stop offset="100%" style="stop-color:#0e0920"/>
    </linearGradient>
    <linearGradient id="cardRed" x1="0%" y1="0%" x2="0%" y2="100%">
      <stop offset="0%" style="stop-color:#200a0a"/>
      <stop offset="100%" style="stop-color:#160606"/>
    </linearGradient>
    <linearGradient id="cardAmber" x1="0%" y1="0%" x2="0%" y2="100%">
      <stop offset="0%" style="stop-color:#211608"/>
      <stop offset="100%" style="stop-color:#160e04"/>
    </linearGradient>
    <!-- Shadows -->
    <filter id="cardShadow">
      <feDropShadow dx="0" dy="3" stdDeviation="8" flood-color="#000" flood-opacity="0.6"/>
    </filter>
    <filter id="glowSm" x="-20%" y="-20%" width="140%" height="140%">
      <feGaussianBlur in="SourceGraphic" stdDeviation="3" result="blur"/>
      <feComposite in="SourceGraphic" in2="blur" operator="over"/>
    </filter>
    <!-- Arrow markers -->
    <marker id="arrGray" markerWidth="8" markerHeight="8" refX="6" refY="4" orient="auto">
      <path d="M0,1 L0,7 L8,4 z" fill="#30363d"/>
    </marker>
    <marker id="arrBlue" markerWidth="8" markerHeight="8" refX="6" refY="4" orient="auto">
      <path d="M0,1 L0,7 L8,4 z" fill="#0ea5e9"/>
    </marker>
    <marker id="arrGold" markerWidth="8" markerHeight="8" refX="6" refY="4" orient="auto">
      <path d="M0,1 L0,7 L8,4 z" fill="#f59e0b"/>
    </marker>
  </defs>

  <!-- ═══════════════ PAGE BACKGROUND ═══════════════ -->
  <rect width="900" height="820" fill="url(#pageBg)" rx="16"/>

  <!-- Subtle dots pattern -->
  <pattern id="dots" x="0" y="0" width="24" height="24" patternUnits="userSpaceOnUse">
    <circle cx="12" cy="12" r="0.8" fill="#30363d" fill-opacity="0.5"/>
  </pattern>
  <rect width="900" height="820" fill="url(#dots)" rx="16"/>

  <!-- ═══════════════ HEADER ═══════════════ -->
  <rect x="0" y="0" width="900" height="76" fill="#161b22" rx="16"/>
  <rect x="0" y="60" width="900" height="16" fill="#161b22"/>
  <rect x="36" y="24" width="4" height="32" rx="2" fill="url(#goldPathGrad)"/>
  <text x="52" y="38" font-size="22" font-weight="800" fill="#f0f6fc">Daily Workflow</text>
  <text x="52" y="60" font-size="11" fill="#8b949e" letter-spacing="1.5">UNIVERSAL AGENTIC DEVELOPMENT FRAMEWORK  ·  v1.1.0</text>
  <text x="864" y="38" text-anchor="end" font-size="11" fill="#30363d">Claude Code</text>
  <text x="864" y="54" text-anchor="end" font-size="11" fill="#30363d">10 commands</text>

  <!-- ═══════════════ VERTICAL TIMELINE LINE ═══════════════ -->
  <line x1="80" y1="100" x2="80" y2="756" stroke="#21262d" stroke-width="2"/>

  <!-- ════════════════════════════════════════════════════
       PHASE 1 — START OF DAY
  ════════════════════════════════════════════════════ -->
  <rect x="36" y="96" width="828" height="118" rx="10" fill="url(#morningGrad)"/>
  <rect x="36" y="96" width="3" height="118" rx="1.5" fill="#0ea5e9"/>

  <!-- Timeline dot -->
  <circle cx="80" cy="130" r="10" fill="#0d1117" stroke="#0ea5e9" stroke-width="2"/>
  <text x="80" y="135" text-anchor="middle" font-size="12">☀️</text>

  <!-- Phase label -->
  <text x="104" y="122" font-size="10" font-weight="700" fill="#0ea5e9" letter-spacing="2">START OF DAY</text>

  <!-- /onboard card -->
  <rect x="104" y="130" width="318" height="72" rx="10" fill="url(#cardBlue)" stroke="#0ea5e9" stroke-width="1" filter="url(#cardShadow)"/>
  <rect x="104" y="130" width="318" height="3" rx="1.5" fill="#0ea5e9"/>
  <text x="124" y="154" font-size="14" font-weight="700" fill="#38bdf8">/onboard</text>
  <rect x="266" y="140" width="140" height="20" rx="10" fill="#0c2a3f"/>
  <text x="336" y="154" text-anchor="middle" font-size="10" fill="#7dd3fc">New session or fresh clone</text>
  <text x="124" y="173" font-size="10" fill="#64748b">Scans CLAUDE.md · ADRs · git log · test health</text>
  <text x="124" y="189" font-size="10" fill="#1e40af">→  orientation summary in under 2 minutes</text>

  <!-- divider -->
  <line x1="450" y1="140" x2="450" y2="192" stroke="#21262d" stroke-width="1" stroke-dasharray="3,3"/>

  <!-- /standup card -->
  <rect x="468" y="130" width="380" height="72" rx="10" fill="url(#cardGreen)" stroke="#10b981" stroke-width="1" filter="url(#cardShadow)"/>
  <rect x="468" y="130" width="380" height="3" rx="1.5" fill="#10b981"/>
  <text x="488" y="154" font-size="14" font-weight="700" fill="#34d399">/standup</text>
  <rect x="620" y="140" width="212" height="20" rx="10" fill="#0a2018"/>
  <text x="726" y="154" text-anchor="middle" font-size="10" fill="#6ee7b7">Already oriented, daily check-in</text>
  <text x="488" y="173" font-size="10" fill="#64748b">git log · stash · WIP markers · test health</text>
  <text x="488" y="189" font-size="10" fill="#166534">→  Yesterday / Today / Blockers — ready to paste</text>

  <!-- connector down -->
  <line x1="80" y1="214" x2="80" y2="232" stroke="#21262d" stroke-width="2" marker-end="url(#arrGray)"/>

  <!-- ════════════════════════════════════════════════════
       PHASE 2 — PLANNING
  ════════════════════════════════════════════════════ -->
  <rect x="36" y="236" width="828" height="118" rx="10" fill="url(#planGrad)"/>
  <rect x="36" y="236" width="3" height="118" rx="1.5" fill="#6366f1"/>

  <circle cx="80" cy="270" r="10" fill="#0d1117" stroke="#6366f1" stroke-width="2"/>
  <text x="80" y="275" text-anchor="middle" font-size="12">📐</text>

  <text x="104" y="262" font-size="10" font-weight="700" fill="#6366f1" letter-spacing="2">PLANNING</text>

  <!-- /plan-feature card -->
  <rect x="104" y="270" width="318" height="72" rx="10" fill="url(#cardPurple)" stroke="#6366f1" stroke-width="1" filter="url(#cardShadow)"/>
  <rect x="104" y="270" width="318" height="3" rx="1.5" fill="#6366f1"/>
  <text x="124" y="294" font-size="14" font-weight="700" fill="#818cf8">/plan-feature</text>
  <rect x="271" y="280" width="135" height="20" rx="10" fill="#1a1535"/>
  <text x="338" y="294" text-anchor="middle" font-size="10" fill="#a5b4fc">Before any non-trivial change</text>
  <text x="124" y="313" font-size="10" fill="#64748b">Blast radius audit · risk matrix LOW→CRITICAL</text>
  <text x="124" y="329" font-size="10" fill="#3730a3">→  phased plan with rollback per phase</text>

  <!-- /adr card -->
  <rect x="468" y="270" width="380" height="72" rx="10" fill="url(#cardAmber)" stroke="#f59e0b" stroke-width="1" filter="url(#cardShadow)"/>
  <rect x="468" y="270" width="380" height="3" rx="1.5" fill="#f59e0b"/>
  <text x="488" y="294" font-size="14" font-weight="700" fill="#fbbf24">/adr</text>
  <rect x="530" y="280" width="302" height="20" rx="10" fill="#211608"/>
  <text x="681" y="294" text-anchor="middle" font-size="10" fill="#fde68a">Significant architecture decision made</text>
  <text x="488" y="313" font-size="10" fill="#64748b">Context · options · decision · consequences · revisit trigger</text>
  <text x="488" y="329" font-size="10" fill="#92400e">→  docs/decisions/NNNN-slug.md  ·  never re-litigated</text>

  <line x1="80" y1="354" x2="80" y2="372" stroke="#21262d" stroke-width="2" marker-end="url(#arrGray)"/>

  <!-- ════════════════════════════════════════════════════
       PHASE 3 — BUILDING
  ════════════════════════════════════════════════════ -->
  <rect x="36" y="376" width="828" height="134" rx="10" fill="url(#buildGrad)"/>
  <rect x="36" y="376" width="3" height="134" rx="1.5" fill="#10b981"/>

  <circle cx="80" cy="410" r="10" fill="#0d1117" stroke="#10b981" stroke-width="2"/>
  <text x="80" y="415" text-anchor="middle" font-size="12">⚙️</text>

  <text x="104" y="402" font-size="10" font-weight="700" fill="#10b981" letter-spacing="2">BUILDING  (agents do the work)</text>

  <!-- 4 agent cards in a row -->
  <!-- api-engineer -->
  <rect x="104" y="410" width="178" height="88" rx="10" fill="#0b1e1e" stroke="#0891b2" stroke-width="1" filter="url(#cardShadow)"/>
  <rect x="104" y="410" width="178" height="3" rx="1.5" fill="#0891b2"/>
  <text x="114" y="432" font-size="12" font-weight="700" fill="#22d3ee">api-engineer</text>
  <text x="114" y="449" font-size="9" fill="#64748b">Backend · REST endpoints</text>
  <text x="114" y="463" font-size="9" fill="#64748b">service logic · DB queries</text>
  <text x="114" y="477" font-size="9" fill="#64748b">repository layer · validation</text>
  <rect x="114" y="484" width="60" height="10" rx="5" fill="#0c2a3f"/>
  <text x="144" y="492" text-anchor="middle" font-size="7" fill="#38bdf8">Sonnet</text>

  <!-- frontend-engineer -->
  <rect x="296" y="410" width="178" height="88" rx="10" fill="#1a0f1f" stroke="#a855f7" stroke-width="1" filter="url(#cardShadow)"/>
  <rect x="296" y="410" width="178" height="3" rx="1.5" fill="#a855f7"/>
  <text x="306" y="432" font-size="12" font-weight="700" fill="#d8b4fe">frontend-engineer</text>
  <text x="306" y="449" font-size="9" fill="#64748b">UI components · a11y</text>
  <text x="306" y="463" font-size="9" fill="#64748b">Figma → implementation</text>
  <text x="306" y="477" font-size="9" fill="#64748b">design-system skill</text>
  <rect x="306" y="484" width="60" height="10" rx="5" fill="#1a0f2e"/>
  <text x="336" y="492" text-anchor="middle" font-size="7" fill="#d8b4fe">Sonnet</text>

  <!-- devops-engineer -->
  <rect x="488" y="410" width="178" height="88" rx="10" fill="#1a1008" stroke="#f97316" stroke-width="1" filter="url(#cardShadow)"/>
  <rect x="488" y="410" width="178" height="3" rx="1.5" fill="#f97316"/>
  <text x="498" y="432" font-size="12" font-weight="700" fill="#fb923c">devops-engineer</text>
  <text x="498" y="449" font-size="9" fill="#64748b">Docker · CI/CD pipelines</text>
  <text x="498" y="463" font-size="9" fill="#64748b">health checks · rollback</text>
  <text x="498" y="477" font-size="9" fill="#64748b">zero-downtime deploy</text>
  <rect x="498" y="484" width="60" height="10" rx="5" fill="#211608"/>
  <text x="528" y="492" text-anchor="middle" font-size="7" fill="#fdba74">Sonnet</text>

  <!-- test-engineer -->
  <rect x="680" y="410" width="178" height="88" rx="10" fill="#0a2018" stroke="#22c55e" stroke-width="1" filter="url(#cardShadow)"/>
  <rect x="680" y="410" width="178" height="3" rx="1.5" fill="#22c55e"/>
  <text x="690" y="432" font-size="12" font-weight="700" fill="#4ade80">test-engineer</text>
  <text x="690" y="449" font-size="9" fill="#64748b">Unit · integration · e2e</text>
  <text x="690" y="463" font-size="9" fill="#64748b">edge cases · coverage</text>
  <text x="690" y="477" font-size="9" fill="#64748b">AAA pattern · deterministic</text>
  <rect x="690" y="484" width="60" height="10" rx="5" fill="#0a2018"/>
  <text x="720" y="492" text-anchor="middle" font-size="7" fill="#86efac">Sonnet</text>

  <line x1="80" y1="510" x2="80" y2="528" stroke="#21262d" stroke-width="2" marker-end="url(#arrGray)"/>

  <!-- ════════════════════════════════════════════════════
       PHASE 4 — WHEN THINGS BREAK
  ════════════════════════════════════════════════════ -->
  <rect x="36" y="532" width="828" height="96" rx="10" fill="url(#breakGrad)"/>
  <rect x="36" y="532" width="3" height="96" rx="1.5" fill="#ef4444"/>

  <circle cx="80" cy="566" r="10" fill="#0d1117" stroke="#ef4444" stroke-width="2"/>
  <text x="80" y="571" text-anchor="middle" font-size="12">🔥</text>

  <text x="104" y="558" font-size="10" font-weight="700" fill="#ef4444" letter-spacing="2">WHEN THINGS BREAK</text>

  <!-- /debug — full width card -->
  <rect x="104" y="566" width="748" height="54" rx="10" fill="url(#cardRed)" stroke="#ef4444" stroke-width="1" filter="url(#cardShadow)"/>
  <rect x="104" y="566" width="748" height="3" rx="1.5" fill="#ef4444"/>
  <text x="124" y="589" font-size="14" font-weight="700" fill="#f87171">/debug</text>

  <!-- 6 steps inline -->
  <text x="210" y="583" font-size="9" font-weight="600" fill="#64748b">①</text>
  <text x="222" y="583" font-size="9" fill="#94a3b8">Reproduce</text>
  <text x="290" y="583" font-size="9" fill="#30363d">→</text>
  <text x="302" y="583" font-size="9" font-weight="600" fill="#64748b">②</text>
  <text x="314" y="583" font-size="9" fill="#94a3b8">Read error</text>
  <text x="382" y="583" font-size="9" fill="#30363d">→</text>
  <text x="394" y="583" font-size="9" font-weight="600" fill="#64748b">③</text>
  <text x="406" y="583" font-size="9" fill="#94a3b8">Isolate</text>
  <text x="452" y="583" font-size="9" fill="#30363d">→</text>
  <text x="464" y="583" font-size="9" font-weight="600" fill="#64748b">④</text>
  <text x="476" y="583" font-size="9" fill="#94a3b8">Hypothesize</text>
  <text x="560" y="583" font-size="9" fill="#30363d">→</text>
  <text x="572" y="583" font-size="9" font-weight="600" fill="#64748b">⑤</text>
  <text x="584" y="583" font-size="9" fill="#94a3b8">Fix root cause</text>
  <text x="668" y="583" font-size="9" fill="#30363d">→</text>
  <text x="680" y="583" font-size="9" font-weight="600" fill="#64748b">⑥</text>
  <text x="692" y="583" font-size="9" fill="#94a3b8">Verify</text>

  <text x="124" y="609" font-size="9" fill="#7f1d1d">Never guess · hypothesis before code · one fix at a time · escalate after 3 failed hypotheses</text>

  <line x1="80" y1="628" x2="80" y2="646" stroke="#21262d" stroke-width="2" marker-end="url(#arrGray)"/>

  <!-- ════════════════════════════════════════════════════
       PHASE 5 — BEFORE COMMITTING
  ════════════════════════════════════════════════════ -->
  <rect x="36" y="650" width="828" height="106" rx="10" fill="url(#commitGrad)"/>
  <rect x="36" y="650" width="3" height="106" rx="1.5" fill="#f59e0b"/>

  <circle cx="80" cy="684" r="10" fill="#0d1117" stroke="#f59e0b" stroke-width="2"/>
  <text x="80" y="689" text-anchor="middle" font-size="12">✅</text>

  <text x="104" y="676" font-size="10" font-weight="700" fill="#f59e0b" letter-spacing="2">BEFORE COMMITTING</text>

  <!-- /self-review card -->
  <rect x="104" y="684" width="373" height="64" rx="10" fill="#0f2217" stroke="#10b981" stroke-width="1" filter="url(#cardShadow)"/>
  <rect x="104" y="684" width="373" height="3" rx="1.5" fill="#10b981"/>
  <text x="124" y="706" font-size="14" font-weight="700" fill="#34d399">/self-review</text>
  <rect x="232" y="692" width="229" height="18" rx="9" fill="#0a2018"/>
  <text x="346" y="704" text-anchor="middle" font-size="9" fill="#6ee7b7">Tests → Lint → Security spot-check</text>
  <text x="124" y="724" font-size="9" fill="#64748b">Loops until all checks are green — never use --no-verify</text>
  <text x="124" y="739" font-size="9" fill="#166534">→  blocks commit if lint or tests fail</text>

  <!-- connector -->
  <text x="494" y="718" text-anchor="middle" font-size="11" fill="#f59e0b">+</text>
  <text x="494" y="732" text-anchor="middle" font-size="9" fill="#92400e">if API changed</text>

  <!-- /check-contracts card -->
  <rect x="508" y="684" width="344" height="64" rx="10" fill="url(#cardPurple)" stroke="#8b5cf6" stroke-width="1" filter="url(#cardShadow)"/>
  <rect x="508" y="684" width="344" height="3" rx="1.5" fill="#8b5cf6"/>
  <text x="528" y="706" font-size="14" font-weight="700" fill="#a78bfa">/check-contracts</text>
  <rect x="680" y="692" width="156" height="18" rx="9" fill="#160f2d"/>
  <text x="758" y="704" text-anchor="middle" font-size="9" fill="#c4b5fd">Only if API surface changed</text>
  <text x="528" y="724" font-size="9" fill="#64748b">Audits /contracts/ vs implementation — finds drift</text>
  <text x="528" y="739" font-size="9" fill="#4c1d95">→  UNDOCUMENTED · DEAD SPEC · BREAKING Δ</text>

  <line x1="80" y1="756" x2="80" y2="772" stroke="#21262d" stroke-width="2" marker-end="url(#arrGray)"/>

  <!-- ════════════════════════════════════════════════════
       PHASE 6 — SHIPPING
  ════════════════════════════════════════════════════ -->
  <!-- (Reusing space at bottom — shipping is the golden path strip) -->

  <!-- ═══════════════ GOLDEN PATH ═══════════════ -->
  <rect x="36" y="762" width="828" height="46" rx="10" fill="#0d1117" stroke="#21262d" stroke-width="1"/>
  <!-- Gradient top border -->
  <rect x="36" y="762" width="828" height="3" rx="1.5" fill="url(#goldPathGrad)"/>

  <text x="60" y="781" font-size="10" font-weight="700" fill="#8b949e" letter-spacing="1.5">GOLDEN PATH</text>

  <!-- Steps with arrows -->
  <rect x="148" y="769" width="104" height="22" rx="11" fill="#0c2233" stroke="#0ea5e9" stroke-width="1"/>
  <text x="200" y="784" text-anchor="middle" font-size="11" font-weight="700" fill="#38bdf8">/plan-feature</text>

  <text x="262" y="784" text-anchor="middle" font-size="14" fill="#30363d">→</text>

  <rect x="276" y="769" width="100" height="22" rx="11" fill="#0a1a10" stroke="#10b981" stroke-width="1"/>
  <text x="326" y="784" text-anchor="middle" font-size="11" font-weight="600" fill="#34d399">agent builds</text>

  <text x="386" y="784" text-anchor="middle" font-size="14" fill="#30363d">→</text>

  <rect x="400" y="769" width="100" height="22" rx="11" fill="#0f2217" stroke="#10b981" stroke-width="1"/>
  <text x="450" y="784" text-anchor="middle" font-size="11" font-weight="700" fill="#34d399">/self-review</text>

  <text x="510" y="784" text-anchor="middle" font-size="14" fill="#30363d">→</text>

  <rect x="524" y="769" width="96" height="22" rx="11" fill="#160f2d" stroke="#8b5cf6" stroke-width="1"/>
  <text x="572" y="784" text-anchor="middle" font-size="11" font-weight="700" fill="#a78bfa">/smart-pr</text>

  <text x="630" y="784" text-anchor="middle" font-size="14" fill="#30363d">→</text>

  <rect x="644" y="769" width="96" height="22" rx="11" fill="#0c2233" stroke="#0ea5e9" stroke-width="1"/>
  <text x="692" y="784" text-anchor="middle" font-size="11" font-weight="700" fill="#38bdf8">/review-pr</text>

  <text x="750" y="784" text-anchor="middle" font-size="14" fill="#30363d">→</text>

  <rect x="764" y="769" width="76" height="22" rx="11" fill="#1a0a1a" stroke="#f472b6" stroke-width="1"/>
  <text x="802" y="784" text-anchor="middle" font-size="11" font-weight="700" fill="#f472b6">🚀 Ship</text>

  <!-- Bottom label -->
  <text x="450" y="808" text-anchor="middle" font-size="9" fill="#30363d" letter-spacing="1">github.com/KoolekLabs/agentic-setup</text>

</svg>
